<mxfile host="app.diagrams.net" modified="2021-01-13T07:30:18.612Z" agent="5.0 (Windows NT 10.0; Win64; x64) AppleWebKit/537.36 (KHTML, like Gecko) Chrome/87.0.4280.88 Safari/537.36" etag="GVbmepoSGI3_2bB7sDXL" version="14.1.8" type="github">
  <diagram id="smvixPp0p1-Kv1snps6b" name="Page-1">
    <mxGraphModel dx="782" dy="437" grid="1" gridSize="10" guides="1" tooltips="1" connect="1" arrows="1" fold="1" page="1" pageScale="1" pageWidth="850" pageHeight="1100" math="0" shadow="0">
      <root>
        <mxCell id="0" />
        <mxCell id="1" parent="0" />
        <mxCell id="ttLQkn_YeeOsteJZZQMm-2" value="" style="shape=table;html=1;whiteSpace=wrap;startSize=0;container=1;collapsible=0;childLayout=tableLayout;verticalAlign=top;align=left;fillColor=#fff2cc;strokeColor=#d6b656;" vertex="1" parent="1">
          <mxGeometry x="140" y="70" width="100" height="110" as="geometry" />
        </mxCell>
        <mxCell id="ttLQkn_YeeOsteJZZQMm-3" value="" style="shape=partialRectangle;html=1;whiteSpace=wrap;collapsible=0;dropTarget=0;pointerEvents=0;fillColor=none;top=0;left=0;bottom=0;right=0;points=[[0,0.5],[1,0.5]];portConstraint=eastwest;verticalAlign=top;" vertex="1" parent="ttLQkn_YeeOsteJZZQMm-2">
          <mxGeometry width="100" height="80" as="geometry" />
        </mxCell>
        <mxCell id="ttLQkn_YeeOsteJZZQMm-4" value="&lt;div style=&quot;text-align: justify&quot;&gt;&lt;span&gt;sip:127.0.0.1&lt;/span&gt;&lt;br&gt;&lt;/div&gt;&lt;div style=&quot;text-align: justify&quot;&gt;&lt;span&gt;dst:127.0.0.1&lt;/span&gt;&lt;/div&gt;&lt;div style=&quot;text-align: justify&quot;&gt;&lt;span&gt;sport:30001&lt;/span&gt;&lt;/div&gt;&lt;div style=&quot;text-align: justify&quot;&gt;&lt;span&gt;dport:8080&lt;/span&gt;&lt;/div&gt;" style="shape=partialRectangle;html=1;whiteSpace=wrap;connectable=0;overflow=hidden;fillColor=#ffe6cc;top=0;left=0;bottom=0;right=0;align=center;strokeColor=#d79b00;" vertex="1" parent="ttLQkn_YeeOsteJZZQMm-3">
          <mxGeometry width="100" height="80" as="geometry" />
        </mxCell>
        <mxCell id="ttLQkn_YeeOsteJZZQMm-5" value="" style="shape=partialRectangle;html=1;whiteSpace=wrap;collapsible=0;dropTarget=0;pointerEvents=0;fillColor=none;top=0;left=0;bottom=0;right=0;points=[[0,0.5],[1,0.5]];portConstraint=eastwest;" vertex="1" parent="ttLQkn_YeeOsteJZZQMm-2">
          <mxGeometry y="80" width="100" height="30" as="geometry" />
        </mxCell>
        <mxCell id="ttLQkn_YeeOsteJZZQMm-6" value="soket(fd)" style="shape=partialRectangle;html=1;whiteSpace=wrap;connectable=0;overflow=hidden;fillColor=#dae8fc;top=0;left=0;bottom=0;right=0;strokeColor=#6c8ebf;" vertex="1" parent="ttLQkn_YeeOsteJZZQMm-5">
          <mxGeometry width="100" height="30" as="geometry" />
        </mxCell>
      </root>
    </mxGraphModel>
  </diagram>
</mxfile>
